# xmcd
# 
# Track frame offsets:
#     150
#     18357
#     42405
#     60607
#     84647
# 
# Disc length: 1411
# 
# Revision: 4
# Processed by: cddbd v1.5.2PL0 Copyright (c) Steve Scherf et al.
# Submitted via: BonkEnc v1.0.8
# 
DISCID=38058105
DTITLE=EXILE - Summer Time love
DYEAR=0
DGENRE=JPop
TTITLE0=Summer Time Love
TTITLE1=響~Hibiki~
TTITLE2=Summer Time Love (Instrumental)
TTITLE3=響~Hibiki~ (Instrumental)
TTITLE4=Choo Choo Train
EXTD=
EXTT0=
EXTT1=
EXTT2=
EXTT3=
EXTT4=
PLAYORDER=
